<?xml version="1.0" encoding="utf-8"?>
<!-- Generator: Adobe Illustrator 23.0.1, SVG Export Plug-In . SVG Version: 6.00 Build 0)  -->
<svg version="1.0" id="Layer_2" xmlns="http://www.w3.org/2000/svg" xmlns:xlink="http://www.w3.org/1999/xlink" x="0px" y="0px"
	 viewBox="0 0 174.97 161.07" style="enable-background:new 0 0 174.97 161.07;" xml:space="preserve">
<style type="text/css">
	.st0{fill:#D1D2C3;}
</style>
<path class="st0" d="M171.6,64.03C161.55,27.46,126.72-2.1,82.38,0.32C42.92,2.46,9.17,31.26,1.67,71.23
	c-5.37,28.6,3.79,54.17,18.57,71.94c6.15,7.39,13.27,13.44,20.72,17.79c3.37-7.52,6.73-15.02,10.12-22.58
	c24.38,15.16,48.53,15.14,72.81-0.01c3.39,7.59,6.72,15.03,10.14,22.7c7.47-4.53,14.33-10.44,20.2-17.41
	C171.21,123.5,179.96,94.44,171.6,64.03z M61.97,113.85c1.92-4.38,3.88-8.87,5.87-13.34c2.75-6.2,5.52-12.38,8.29-18.57
	c2.2-4.91,6.09-7.54,11.37-7.52c5.28,0.01,9.14,2.66,11.33,7.58c4.19,9.42,8.41,18.82,12.61,28.24c0.53,1.18,0.96,2.4,1.42,3.54
	C101.05,126.45,76.71,128.36,61.97,113.85z M142.14,116.25c-2.97-6.65-5.9-13.15-8.79-19.67c-1.88-4.25-3.67-8.55-5.51-12.82
	l-2.98-6.76c-0.98-2.16-1.99-4.3-3.06-6.41c-7.43-14.79-19.68-22.32-36.31-21.56c-15.34,0.7-26.24,8.65-32.64,22.46
	c-2.48,5.34-4.9,10.71-7.32,16.1l-7.36,16.55c-1.79,4.05-3.6,8.12-5.42,12.2C20.59,96.09,21.07,61.6,46.67,39.3
	c24.18-21.06,61.34-19.92,84.55,2.75c22.59,22.07,22.88,54.93,10.93,74.19C142.14,116.24,142.14,116.25,142.14,116.25z"/>
</svg>
