<?xml version="1.0" encoding="utf-8"?>
<!-- Generator: Adobe Illustrator 23.0.1, SVG Export Plug-In . SVG Version: 6.00 Build 0)  -->
<svg version="1.0" id="Layer_2" xmlns="http://www.w3.org/2000/svg" xmlns:xlink="http://www.w3.org/1999/xlink" x="0px" y="0px"
	 viewBox="0 0 1231.62 162.13" style="enable-background:new 0 0 1231.62 162.13;" xml:space="preserve">
<style type="text/css">
	.st0{fill:#003139;}
</style>
<path class="st0" d="M172.89,64.85C162.83,28.28,128-1.27,83.66,1.14C44.2,3.29,10.45,32.08,2.95,72.05
	c-5.37,28.6,3.79,54.17,18.57,71.94c6.15,7.39,13.27,13.44,20.72,17.79c3.37-7.52,6.73-15.02,10.12-22.58
	c24.38,15.16,48.53,15.14,72.81-0.01c3.39,7.59,6.72,15.03,10.14,22.7c7.47-4.53,14.33-10.44,20.2-17.41
	C172.49,124.32,181.24,95.26,172.89,64.85z M63.25,114.67c1.92-4.38,3.88-8.87,5.87-13.34c2.75-6.2,5.52-12.38,8.29-18.57
	c2.2-4.91,6.09-7.54,11.37-7.52c5.28,0.01,9.14,2.66,11.33,7.58c4.19,9.42,8.41,18.82,12.61,28.24c0.53,1.18,0.96,2.4,1.42,3.54
	C102.33,127.27,77.99,129.18,63.25,114.67z M143.42,117.07c-2.97-6.65-5.9-13.15-8.79-19.67c-1.88-4.25-3.67-8.55-5.51-12.82
	l-2.98-6.76c-0.98-2.16-1.99-4.3-3.06-6.41c-7.43-14.79-19.68-22.32-36.31-21.56c-15.34,0.7-26.24,8.65-32.64,22.46
	c-2.48,5.34-4.9,10.71-7.32,16.1l-7.36,16.55c-1.79,4.05-3.6,8.12-5.42,12.2C21.87,96.91,22.35,62.42,47.95,40.12
	c24.18-21.06,61.34-19.92,84.55,2.75c22.59,22.07,22.88,54.93,10.93,74.19C143.42,117.06,143.42,117.07,143.42,117.07z"/>
<path class="st0" d="M291.56,118.72h-43.58l-6.99,20.62h-29.77l42.25-116.76h32.93l42.25,116.76h-30.1L291.56,118.72z M284.24,96.76
	l-14.47-42.75l-14.3,42.75H284.24z"/>
<path class="st0" d="M425.61,46.53v92.81h-28.44V126.7c-2.88,4.1-6.79,7.4-11.73,9.9c-4.94,2.5-10.4,3.74-16.38,3.74
	c-7.1,0-13.36-1.58-18.79-4.74c-5.43-3.16-9.65-7.73-12.64-13.72c-2.99-5.99-4.49-13.03-4.49-21.12V46.53h28.28v50.4
	c0,6.21,1.61,11.03,4.82,14.47c3.21,3.44,7.54,5.16,12.97,5.16c5.54,0,9.92-1.72,13.14-5.16c3.21-3.44,4.82-8.26,4.82-14.47v-50.4
	H425.61z"/>
<path class="st0" d="M490.31,115.22v24.12h-14.47c-10.31,0-18.35-2.52-24.12-7.57c-5.77-5.04-8.65-13.28-8.65-24.7V70.15h-11.31
	V46.53h11.31V23.91h28.44v22.62h18.63v23.62h-18.63v37.26c0,2.77,0.67,4.77,2,5.99c1.33,1.22,3.55,1.83,6.65,1.83H490.31z"/>
<path class="st0" d="M518.84,134.85c-7.26-3.88-12.97-9.42-17.13-16.63c-4.16-7.21-6.24-15.63-6.24-25.28
	c0-9.54,2.1-17.93,6.32-25.2c4.21-7.26,9.98-12.83,17.3-16.72c7.32-3.88,15.52-5.82,24.62-5.82c9.09,0,17.3,1.94,24.62,5.82
	c7.32,3.88,13.08,9.45,17.3,16.72c4.21,7.26,6.32,15.66,6.32,25.2c0,9.54-2.14,17.94-6.4,25.2c-4.27,7.26-10.09,12.84-17.46,16.72
	c-7.38,3.88-15.61,5.82-24.7,5.82C534.28,140.67,526.1,138.73,518.84,134.85z M557.26,110.07c3.83-3.99,5.74-9.7,5.74-17.13
	c0-7.43-1.86-13.14-5.57-17.13c-3.72-3.99-8.29-5.99-13.72-5.99c-5.55,0-10.15,1.97-13.8,5.9c-3.66,3.94-5.49,9.68-5.49,17.21
	c0,7.43,1.8,13.14,5.41,17.13c3.6,3.99,8.12,5.99,13.56,5.99C548.8,116.05,553.43,114.06,557.26,110.07z"/>
<path class="st0" d="M698.55,162.13l-25.95-24.12c-5.66,1.66-11.59,2.5-17.8,2.5c-10.76,0-20.52-2.52-29.27-7.57
	c-8.76-5.04-15.66-12.08-20.71-21.12c-5.05-9.04-7.57-19.26-7.57-30.69c0-11.42,2.52-21.65,7.57-30.69
	c5.04-9.04,11.95-16.08,20.71-21.12c8.76-5.04,18.52-7.57,29.27-7.57c10.87,0,20.68,2.52,29.44,7.57
	c8.76,5.05,15.63,12.09,20.62,21.12c4.99,9.04,7.48,19.27,7.48,30.69c0,11.75-2.61,22.2-7.82,31.35
	c-5.21,9.15-12.37,16.16-21.46,21.04l31.1,28.61H698.55z M615.22,107.16c3.99,7.49,9.42,13.22,16.3,17.21
	c6.87,3.99,14.64,5.99,23.29,5.99s16.41-2,23.29-5.99c6.87-3.99,12.31-9.73,16.3-17.21c3.99-7.48,5.99-16.16,5.99-26.03
	c0-9.87-2-18.52-5.99-25.95c-3.99-7.43-9.43-13.14-16.3-17.13c-6.88-3.99-14.64-5.99-23.29-5.99s-16.41,2-23.29,5.99
	c-6.88,3.99-12.31,9.7-16.3,17.13c-3.99,7.43-5.99,16.08-5.99,25.95C609.23,91,611.23,99.67,615.22,107.16z"/>
<path class="st0" d="M805,48.53v90.81h-11.64v-15.97c-2.66,5.66-6.76,9.98-12.31,12.97c-5.55,2.99-11.75,4.49-18.63,4.49
	c-10.87,0-19.74-3.35-26.61-10.06c-6.88-6.71-10.31-16.44-10.31-29.19V48.53h11.48v51.73c0,9.87,2.47,17.41,7.4,22.62
	c4.93,5.21,11.67,7.82,20.21,7.82c8.76,0,15.74-2.77,20.96-8.32c5.21-5.54,7.82-13.69,7.82-24.45v-49.4H805z"/>
<path class="st0" d="M840.84,134.93c-6.82-3.83-12.2-9.26-16.13-16.3c-3.94-7.04-5.9-15.27-5.9-24.7c0-9.42,2-17.66,5.99-24.7
	c3.99-7.04,9.42-12.47,16.3-16.3c6.87-3.83,14.58-5.74,23.12-5.74c8.54,0,16.27,1.91,23.2,5.74c6.93,3.83,12.36,9.26,16.3,16.3
	c3.94,7.04,5.9,15.28,5.9,24.7c0,9.31-2,17.52-5.99,24.62c-3.99,7.1-9.48,12.56-16.47,16.38c-6.99,3.83-14.75,5.74-23.29,5.74
	C855.34,140.67,847.66,138.76,840.84,134.93z M880.51,126.45c5.1-2.72,9.23-6.82,12.39-12.31c3.16-5.49,4.74-12.23,4.74-20.21
	s-1.55-14.72-4.66-20.21c-3.11-5.49-7.21-9.59-12.31-12.31c-5.1-2.72-10.64-4.08-16.63-4.08s-11.53,1.36-16.63,4.08
	c-5.1,2.72-9.18,6.82-12.23,12.31c-3.05,5.49-4.57,12.23-4.57,20.21s1.52,14.72,4.57,20.21c3.05,5.49,7.09,9.59,12.14,12.31
	c5.04,2.72,10.56,4.08,16.55,4.08S875.41,129.17,880.51,126.45z"/>
<path class="st0" d="M938.56,58.34v56.38c0,5.55,1.05,9.37,3.16,11.48c2.11,2.11,5.82,3.16,11.14,3.16h10.64v9.98h-12.47
	c-8.21,0-14.3-1.91-18.3-5.74s-5.99-10.12-5.99-18.88V58.34h-12.64v-9.81h12.64V25.74h11.81v22.79h24.95v9.81H938.56z"/>
<path class="st0" d="M1056.98,98.42h-75.35c0.33,6.88,2,12.75,4.99,17.63c2.99,4.88,6.93,8.57,11.81,11.06
	c4.88,2.49,10.2,3.74,15.97,3.74c7.54,0,13.89-1.83,19.04-5.49s8.57-8.59,10.23-14.8h12.31c-2.22,8.87-6.96,16.11-14.22,21.71
	c-7.26,5.6-16.38,8.4-27.36,8.4c-8.54,0-16.19-1.91-22.95-5.74c-6.76-3.83-12.06-9.26-15.88-16.3c-3.83-7.04-5.74-15.27-5.74-24.7
	c0-9.42,1.88-17.69,5.66-24.78c3.77-7.09,9.04-12.53,15.8-16.3c6.76-3.77,14.47-5.66,23.12-5.66c8.65,0,16.22,1.89,22.7,5.66
	c6.49,3.77,11.48,8.84,14.97,15.22c3.49,6.38,5.24,13.45,5.24,21.21C1057.31,93.27,1057.2,96.32,1056.98,98.42z M1041.43,71.65
	c-2.83-4.77-6.68-8.37-11.56-10.81c-4.88-2.44-10.2-3.66-15.97-3.66c-8.65,0-16.02,2.77-22.12,8.32
	c-6.1,5.55-9.48,13.36-10.15,23.45h63.87C1045.61,82.18,1044.26,76.41,1041.43,71.65z"/>
<path class="st0" d="M1107.79,89.03c11.14-12.14,16.72-24.03,16.72-35.68c0-7.65-1.91-13.78-5.74-18.38
	c-3.83-4.6-10.06-6.9-18.71-6.9c-8.43,0-14.94,2.64-19.54,7.9c-4.6,5.27-7.18,12.28-7.73,21.04h-11.31
	c0.67-12.31,4.46-21.87,11.39-28.69c6.93-6.82,15.99-10.23,27.19-10.23c10.75,0,19.46,3.02,26.11,9.06
	c6.65,6.04,9.98,14.61,9.98,25.7c0,13.42-5.57,26.42-16.72,39c-11.14,12.59-24.87,24.87-41.17,36.84h61.54v9.81h-79.34v-8.32
	C1080.87,114.89,1096.65,101.17,1107.79,89.03z"/>
<path class="st0" d="M1139.48,111.06v-8.81l60.54-81.5h13.81v80.17h17.8v10.15h-17.8v28.28h-11.48v-28.28H1139.48z M1202.85,33.56
	l-49.9,67.36h49.9V33.56z"/>
</svg>
